<svg width="242" height="22" viewBox="0 0 242 22" fill="none" xmlns="http://www.w3.org/2000/svg">
<path d="M16.855 19.993C16.6017 20.3477 16.247 20.6453 15.791 20.886C15.335 21.114 14.8853 21.228 14.442 21.228C13.7707 21.2153 13.2703 21.038 12.941 20.696C12.6117 20.3413 12.295 19.8347 11.991 19.176L9.806 14.445C9.36267 13.4823 8.88767 12.811 8.381 12.431C7.887 12.051 7.165 11.861 6.215 11.861C5.987 11.8483 5.664 11.8547 5.246 11.88C4.84067 11.8927 4.42267 11.9117 3.992 11.937V21C3.71333 21.0507 3.403 21.0887 3.061 21.114C2.73167 21.1393 2.42133 21.152 2.13 21.152C1.864 21.152 1.55367 21.1393 1.199 21.114C0.844333 21.0887 0.527667 21.0507 0.249 21V0.289999C0.527667 0.239332 0.844333 0.201332 1.199 0.175999C1.55367 0.150666 1.864 0.137999 2.13 0.137999C2.42133 0.137999 2.73167 0.150666 3.061 0.175999C3.403 0.201332 3.71333 0.239332 3.992 0.289999V8.821L5.664 8.764C6.05667 8.75133 6.329 8.688 6.481 8.574C6.633 8.46 6.823 8.23833 7.051 7.909L11.136 1.601C11.4273 1.145 11.7187 0.790333 12.01 0.537C12.314 0.283666 12.7953 0.157 13.454 0.157C13.7073 0.157 14.043 0.169666 14.461 0.194999C14.8917 0.220332 15.278 0.251999 15.62 0.289999L15.867 0.594L10.87 8.156C10.452 8.802 9.996 9.32767 9.502 9.733C10.5027 9.923 11.2817 10.322 11.839 10.93C12.3963 11.538 12.8903 12.3043 13.321 13.229L15.24 17.447C15.506 18.055 15.7657 18.568 16.019 18.986C16.285 19.404 16.5637 19.7397 16.855 19.993ZM25.5721 16.288C25.4328 16.288 25.1161 16.2817 24.6221 16.269C24.1408 16.2563 23.7545 16.25 23.4631 16.25L21.7531 21.019C21.3098 21.133 20.7778 21.19 20.1571 21.19C19.4225 21.19 18.8398 21.1013 18.4091 20.924L18.2951 20.734L25.8761 0.289999C26.1801 0.239332 26.5475 0.201332 26.9781 0.175999C27.4088 0.137998 27.7825 0.118998 28.0991 0.118998C28.3905 0.118998 28.7325 0.137998 29.1251 0.175999C29.5305 0.201332 29.8851 0.239332 30.1891 0.289999L37.7321 20.829C37.4408 20.9683 37.0925 21.076 36.6871 21.152C36.2945 21.228 35.9271 21.266 35.5851 21.266C35.0658 21.266 34.6288 21.1583 34.2741 20.943C33.9321 20.7277 33.6345 20.2527 33.3811 19.518L32.2221 16.25C31.9688 16.25 31.6078 16.2563 31.1391 16.269C30.6831 16.2817 30.3791 16.288 30.2271 16.288H25.5721ZM26.2181 8.517L24.5271 13.229C24.8058 13.229 25.1351 13.2227 25.5151 13.21C25.9078 13.1973 26.1675 13.191 26.2941 13.191H29.6001C29.7268 13.191 29.9548 13.1973 30.2841 13.21C30.6135 13.2227 30.9048 13.229 31.1581 13.229L29.7711 9.315C29.4925 8.50433 29.1758 7.53533 28.8211 6.408C28.4791 5.28067 28.1815 4.29267 27.9281 3.444H27.7571C27.5291 4.25467 27.2695 5.14767 26.9781 6.123C26.6868 7.08567 26.4335 7.88367 26.2181 8.517ZM42.871 5.61C42.871 5.20467 42.8774 4.83733 42.89 4.508C42.9027 4.166 42.909 3.77967 42.909 3.349C42.6684 3.349 42.3327 3.35533 41.902 3.368C41.484 3.38067 41.1547 3.387 40.914 3.387H36.867C36.8164 3.121 36.7784 2.855 36.753 2.589C36.7277 2.323 36.715 2.08233 36.715 1.867C36.715 1.639 36.7277 1.38567 36.753 1.107C36.7784 0.828333 36.8164 0.556 36.867 0.289999H52.504C52.5674 0.505332 52.618 0.752332 52.656 1.031C52.694 1.297 52.713 1.525 52.713 1.715C52.713 2.25967 52.5674 2.67767 52.276 2.969C51.9974 3.24767 51.4717 3.387 50.699 3.387H48.533C48.305 3.387 47.9757 3.38067 47.545 3.368C47.127 3.35533 46.804 3.349 46.576 3.349C46.576 3.77967 46.5824 4.166 46.595 4.508C46.6077 4.83733 46.614 5.20467 46.614 5.61V21C46.3734 21.0507 46.0757 21.0887 45.721 21.114C45.3664 21.1393 45.0434 21.152 44.752 21.152C44.4734 21.152 44.1567 21.1393 43.802 21.114C43.4474 21.0887 43.137 21.0507 42.871 21V5.61ZM58.8221 16.288C58.6828 16.288 58.3661 16.2817 57.8721 16.269C57.3908 16.2563 57.0045 16.25 56.7131 16.25L55.0031 21.019C54.5598 21.133 54.0278 21.19 53.4071 21.19C52.6725 21.19 52.0898 21.1013 51.6591 20.924L51.5451 20.734L59.1261 0.289999C59.4301 0.239332 59.7975 0.201332 60.2281 0.175999C60.6588 0.137998 61.0325 0.118998 61.3491 0.118998C61.6405 0.118998 61.9825 0.137998 62.3751 0.175999C62.7805 0.201332 63.1351 0.239332 63.4391 0.289999L70.9821 20.829C70.6908 20.9683 70.3425 21.076 69.9371 21.152C69.5445 21.228 69.1771 21.266 68.8351 21.266C68.3158 21.266 67.8788 21.1583 67.5241 20.943C67.1821 20.7277 66.8845 20.2527 66.6311 19.518L65.4721 16.25C65.2188 16.25 64.8578 16.2563 64.3891 16.269C63.9331 16.2817 63.6291 16.288 63.4771 16.288H58.8221ZM59.4681 8.517L57.7771 13.229C58.0558 13.229 58.3851 13.2227 58.7651 13.21C59.1578 13.1973 59.4175 13.191 59.5441 13.191H62.8501C62.9768 13.191 63.2048 13.1973 63.5341 13.21C63.8635 13.2227 64.1548 13.229 64.4081 13.229L63.0211 9.315C62.7425 8.50433 62.4258 7.53533 62.0711 6.408C61.7291 5.28067 61.4315 4.29267 61.1781 3.444H61.0071C60.7791 4.25467 60.5195 5.14767 60.2281 6.123C59.9368 7.08567 59.6835 7.88367 59.4681 8.517ZM78.5076 21C78.2163 21.0507 77.906 21.0887 77.5766 21.114C77.2473 21.1393 76.9306 21.152 76.6266 21.152C76.3353 21.152 76.0186 21.1393 75.6766 21.114C75.3473 21.0887 75.0433 21.0507 74.7646 21V0.460998L74.9736 0.289999H88.3116C88.375 0.505332 88.4256 0.752332 88.4636 1.031C88.5016 1.297 88.5206 1.525 88.5206 1.715C88.5206 2.25967 88.375 2.684 88.0836 2.988C87.805 3.292 87.2793 3.444 86.5066 3.444H81.6996C81.1043 3.444 80.5406 3.444 80.0086 3.444C79.4766 3.43133 78.97 3.41867 78.4886 3.406C78.4886 3.938 78.4886 4.47633 78.4886 5.021C78.5013 5.553 78.5076 6.07867 78.5076 6.598V9.22C78.761 9.22 79.008 9.22 79.2486 9.22C79.4893 9.20733 79.7173 9.201 79.9326 9.201H86.4686C86.532 9.429 86.5763 9.68867 86.6016 9.98C86.627 10.2587 86.6396 10.493 86.6396 10.683C86.6396 10.8983 86.627 11.1517 86.6016 11.443C86.5763 11.7217 86.532 11.9813 86.4686 12.222H79.9326C79.7173 12.222 79.4893 12.222 79.2486 12.222C79.008 12.2093 78.761 12.203 78.5076 12.203V21ZM95.0409 16.288C94.9016 16.288 94.5849 16.2817 94.0909 16.269C93.6096 16.2563 93.2232 16.25 92.9319 16.25L91.2219 21.019C90.7786 21.133 90.2466 21.19 89.6259 21.19C88.8912 21.19 88.3086 21.1013 87.8779 20.924L87.7639 20.734L95.3449 0.289999C95.6489 0.239332 96.0162 0.201332 96.4469 0.175999C96.8776 0.137998 97.2512 0.118998 97.5679 0.118998C97.8592 0.118998 98.2012 0.137998 98.5939 0.175999C98.9992 0.201332 99.3539 0.239332 99.6579 0.289999L107.201 20.829C106.91 20.9683 106.561 21.076 106.156 21.152C105.763 21.228 105.396 21.266 105.054 21.266C104.535 21.266 104.098 21.1583 103.743 20.943C103.401 20.7277 103.103 20.2527 102.85 19.518L101.691 16.25C101.438 16.25 101.077 16.2563 100.608 16.269C100.152 16.2817 99.8479 16.288 99.6959 16.288H95.0409ZM95.6869 8.517L93.9959 13.229C94.2746 13.229 94.6039 13.2227 94.9839 13.21C95.3766 13.1973 95.6362 13.191 95.7629 13.191H99.0689C99.1956 13.191 99.4236 13.1973 99.7529 13.21C100.082 13.2227 100.374 13.229 100.627 13.229L99.2399 9.315C98.9612 8.50433 98.6446 7.53533 98.2899 6.408C97.9479 5.28067 97.6502 4.29267 97.3969 3.444H97.2259C96.9979 4.25467 96.7382 5.14767 96.4469 6.123C96.1556 7.08567 95.9022 7.88367 95.6869 8.517ZM124.416 17.846C124.391 19.0367 124.195 19.8663 123.827 20.335C123.46 20.8037 122.827 21.038 121.927 21.038H113.13C112.484 21.038 111.959 20.8417 111.553 20.449C111.161 20.0437 110.964 19.48 110.964 18.758V0.365998L111.173 0.157H112.636C113.409 0.157 113.947 0.340666 114.251 0.707999C114.555 1.07533 114.707 1.677 114.707 2.513V17.998C115.809 17.8967 116.861 17.846 117.861 17.846H124.416ZM145.253 19.993C145 20.3477 144.645 20.6453 144.189 20.886C143.733 21.114 143.284 21.228 142.84 21.228C142.169 21.2153 141.669 21.038 141.339 20.696C141.01 20.3413 140.693 19.8347 140.389 19.176L138.204 14.445C137.761 13.4823 137.286 12.811 136.779 12.431C136.285 12.051 135.563 11.861 134.613 11.861C134.385 11.8483 134.062 11.8547 133.644 11.88C133.239 11.8927 132.821 11.9117 132.39 11.937V21C132.112 21.0507 131.801 21.0887 131.459 21.114C131.13 21.1393 130.82 21.152 130.528 21.152C130.262 21.152 129.952 21.1393 129.597 21.114C129.243 21.0887 128.926 21.0507 128.647 21V0.289999C128.926 0.239332 129.243 0.201332 129.597 0.175999C129.952 0.150666 130.262 0.137999 130.528 0.137999C130.82 0.137999 131.13 0.150666 131.459 0.175999C131.801 0.201332 132.112 0.239332 132.39 0.289999V8.821L134.062 8.764C134.455 8.75133 134.727 8.688 134.879 8.574C135.031 8.46 135.221 8.23833 135.449 7.909L139.534 1.601C139.826 1.145 140.117 0.790333 140.408 0.537C140.712 0.283666 141.194 0.157 141.852 0.157C142.106 0.157 142.441 0.169666 142.859 0.194999C143.29 0.220332 143.676 0.251999 144.018 0.289999L144.265 0.594L139.268 8.156C138.85 8.802 138.394 9.32767 137.9 9.733C138.901 9.923 139.68 10.322 140.237 10.93C140.795 11.538 141.289 12.3043 141.719 13.229L143.638 17.447C143.904 18.055 144.164 18.568 144.417 18.986C144.683 19.404 144.962 19.7397 145.253 19.993ZM148.387 18.986C148.387 18.758 148.413 18.4477 148.463 18.055C148.527 17.6623 148.615 17.3583 148.729 17.143C148.97 17.0037 149.306 16.8897 149.736 16.801C150.167 16.7123 150.579 16.668 150.971 16.668C151.339 16.668 151.75 16.7123 152.206 16.801C152.662 16.8897 152.998 17.0037 153.213 17.143C153.327 17.3583 153.416 17.6623 153.479 18.055C153.543 18.4477 153.574 18.758 153.574 18.986C153.574 19.214 153.543 19.5243 153.479 19.917C153.416 20.3097 153.327 20.6137 153.213 20.829C153.011 20.9683 152.675 21.0823 152.206 21.171C151.75 21.2597 151.339 21.304 150.971 21.304C150.579 21.304 150.167 21.2597 149.736 21.171C149.306 21.0823 148.97 20.9683 148.729 20.829C148.615 20.6137 148.527 20.3097 148.463 19.917C148.413 19.5243 148.387 19.214 148.387 18.986ZM159.284 0.289999C159.55 0.239332 159.861 0.201332 160.215 0.175999C160.583 0.150666 160.899 0.137999 161.165 0.137999C161.457 0.137999 161.767 0.150666 162.096 0.175999C162.426 0.201332 162.736 0.239332 163.027 0.289999V21C162.736 21.0507 162.426 21.0887 162.096 21.114C161.767 21.1393 161.457 21.152 161.165 21.152C160.899 21.152 160.583 21.1393 160.215 21.114C159.861 21.0887 159.55 21.0507 159.284 21V0.289999ZM175.334 8.954C174.992 8.35867 174.612 7.65567 174.194 6.845C173.776 6.02167 173.415 5.31867 173.111 4.736L172.959 4.774C172.997 5.50867 173.035 6.34467 173.073 7.282C173.111 8.20667 173.137 9.09333 173.149 9.942C173.175 10.778 173.187 11.4303 173.187 11.899V21C172.871 21.0507 172.56 21.0887 172.256 21.114C171.965 21.1393 171.693 21.152 171.439 21.152C171.186 21.152 170.901 21.1393 170.584 21.114C170.268 21.0887 169.957 21.0507 169.653 21V0.347C169.957 0.283666 170.318 0.233 170.736 0.194999C171.167 0.156999 171.528 0.137999 171.819 0.137999C172.136 0.137999 172.497 0.150666 172.902 0.175999C173.32 0.188666 173.675 0.226666 173.966 0.289999L180.977 12.374C181.319 12.9567 181.706 13.6913 182.136 14.578C182.58 15.4647 182.96 16.1993 183.276 16.782L183.447 16.744C183.397 16.0853 183.34 15.2937 183.276 14.369C183.226 13.4317 183.181 12.5197 183.143 11.633C183.105 10.7463 183.086 10.0307 183.086 9.486V2.342C183.086 1.51867 183.238 0.948666 183.542 0.631999C183.846 0.302666 184.378 0.137999 185.138 0.137999H186.468L186.677 0.347V20.962C186.361 21.0253 185.993 21.0697 185.575 21.095C185.17 21.133 184.815 21.152 184.511 21.152C184.207 21.152 183.834 21.1393 183.39 21.114C182.96 21.1013 182.605 21.0633 182.326 21L175.334 8.954ZM192.288 18.986C192.288 18.758 192.313 18.4477 192.364 18.055C192.427 17.6623 192.516 17.3583 192.63 17.143C192.87 17.0037 193.206 16.8897 193.637 16.801C194.067 16.7123 194.479 16.668 194.872 16.668C195.239 16.668 195.651 16.7123 196.107 16.801C196.563 16.8897 196.898 17.0037 197.114 17.143C197.228 17.3583 197.316 17.6623 197.38 18.055C197.443 18.4477 197.475 18.758 197.475 18.986C197.475 19.214 197.443 19.5243 197.38 19.917C197.316 20.3097 197.228 20.6137 197.114 20.829C196.911 20.9683 196.575 21.0823 196.107 21.171C195.651 21.2597 195.239 21.304 194.872 21.304C194.479 21.304 194.067 21.2597 193.637 21.171C193.206 21.0823 192.87 20.9683 192.63 20.829C192.516 20.6137 192.427 20.3097 192.364 19.917C192.313 19.5243 192.288 19.214 192.288 18.986ZM219.162 13.666C219.162 16.1993 218.389 18.1373 216.844 19.48C215.311 20.8227 213.221 21.494 210.574 21.494C207.939 21.494 205.849 20.8227 204.304 19.48C202.771 18.1373 202.005 16.1993 202.005 13.666V0.347L202.195 0.137999H203.62C204.38 0.137999 204.924 0.334333 205.254 0.726999C205.583 1.107 205.748 1.715 205.748 2.551V13.647C205.748 15.205 206.153 16.402 206.964 17.238C207.774 18.074 208.978 18.492 210.574 18.492C212.195 18.492 213.405 18.074 214.203 17.238C215.001 16.402 215.4 15.205 215.4 13.647V0.289999C215.678 0.239332 215.982 0.201332 216.312 0.175999C216.641 0.150666 216.945 0.137999 217.224 0.137999C217.502 0.137999 217.819 0.150666 218.174 0.175999C218.541 0.201332 218.87 0.245665 219.162 0.308998V13.666ZM229.191 16.288C229.052 16.288 228.735 16.2817 228.241 16.269C227.76 16.2563 227.374 16.25 227.082 16.25L225.372 21.019C224.929 21.133 224.397 21.19 223.776 21.19C223.042 21.19 222.459 21.1013 222.028 20.924L221.914 20.734L229.495 0.289999C229.799 0.239332 230.167 0.201332 230.597 0.175999C231.028 0.137998 231.402 0.118998 231.718 0.118998C232.01 0.118998 232.352 0.137998 232.744 0.175999C233.15 0.201332 233.504 0.239332 233.808 0.289999L241.351 20.829C241.06 20.9683 240.712 21.076 240.306 21.152C239.914 21.228 239.546 21.266 239.204 21.266C238.685 21.266 238.248 21.1583 237.893 20.943C237.551 20.7277 237.254 20.2527 237 19.518L235.841 16.25C235.588 16.25 235.227 16.2563 234.758 16.269C234.302 16.2817 233.998 16.288 233.846 16.288H229.191ZM229.837 8.517L228.146 13.229C228.425 13.229 228.754 13.2227 229.134 13.21C229.527 13.1973 229.787 13.191 229.913 13.191H233.219C233.346 13.191 233.574 13.1973 233.903 13.21C234.233 13.2227 234.524 13.229 234.777 13.229L233.39 9.315C233.112 8.50433 232.795 7.53533 232.44 6.408C232.098 5.28067 231.801 4.29267 231.547 3.444H231.376C231.148 4.25467 230.889 5.14767 230.597 6.123C230.306 7.08567 230.053 7.88367 229.837 8.517Z" fill="white"/>
</svg>
